<?xml version="1.0" encoding="utf-8"?>
<!-- Generator: Adobe Illustrator 23.1.0, SVG Export Plug-In . SVG Version: 6.00 Build 0)  -->
<svg version="1.1" id="Capa_1" xmlns="http://www.w3.org/2000/svg" xmlns:xlink="http://www.w3.org/1999/xlink" x="0px" y="0px"
	 viewBox="0 0 1033 388" style="enable-background:new 0 0 1033 388;" xml:space="preserve">
<style type="text/css">
	.st0{fill:#20223E;}
	.st1{fill:#FFFFFF;}
	.st2{fill:#5CB033;}
	.st3{fill:#FAE91C;}
	.st4{fill:#C4383A;}
	.st5{clip-path:url(#SVGID_2_);}
	.st6{fill:none;stroke:#BED000;stroke-width:2.443;stroke-miterlimit:10;}
	.st7{fill:none;stroke:#BED000;stroke-width:2.443;stroke-miterlimit:10;stroke-dasharray:5.8492,5.8492;}
</style>
<rect x="-1.2" y="0.2" class="st0" width="974.9" height="387.7"/>
<polygon class="st0" points="1033,193.6 1003.3,221.9 973.6,250.3 973.6,193.6 973.6,136.9 1003.3,165.2 "/>
<g>
	<path class="st1" d="M257.2,139.4h-52.2v0c-0.1,0-0.2,0-0.4,0h-4.3v0c-3.4,0-7.7,0-10.2,0c-8.2,0-16.4-0.1-24.5-0.1
		c-8.3,0-16.6-0.4-24.8,0.3c-2.3,0.2-4.6,0.5-6.9,0.9c-13.9,2.5-26.6,10.3-34.2,22.4c-6.8,10.8-9.1,24.1-6.4,36.6
		c7.1,32.6,45.4,49.1,73.8,31.6c6-3.7,10.7-8.7,15.6-13.6c0.6-0.6,1.3-1.2,2.3-2.2V238h20v-58.6h-52.9c-3.2,0-5.8,2.6-5.8,5.8v14.1
		h26.1c-0.5,0-2.1,2-2.5,2.4c-0.8,0.8-1.7,1.7-2.5,2.5c-1.5,1.5-3,2.9-4.4,4.4c-9.9,10.2-25.8,12.3-37.7,4.3
		c-9.8-6.5-14.8-18.4-12.5-29.8c2-9.8,9.6-18.8,19.2-21.7c4.3-1.3,8.7-1.6,13.2-1.8c2.7-0.1,5.3-0.2,8-0.3
		c15.7-0.3,31.4,0.1,47.2,0.1v0h2.1c0.1,0,0.1,0,0.2,0c0.8,0,1.6,0,2.4,0v0h52.2c5,0,9-3.8,9-8.4v-3.3
		C266.2,143.2,262.1,139.4,257.2,139.4z"/>
	<polygon class="st1" points="225.5,216.2 250.9,216.2 250.9,200.9 225.5,200.9 225.5,194.7 254.4,194.7 254.4,179.4 209,179.4 
		209,238 254.7,238 254.7,222.7 225.5,222.7 	"/>
	<path class="st1" d="M309,199.7v-0.2c0-12.4-8.7-20.1-22.7-20.1h-27V238h16.6v-17.2h5.7l11.5,17.2h19.6l-14.1-20.6
		C305.3,213.9,309,207.8,309,199.7z M292.2,200.3c0,4.7-4.7,5.3-6.7,5.3h-9.6v-10.7h9.4c6.9,0,6.9,4,6.9,5.3V200.3z"/>
	<polygon class="st1" points="330.2,216.2 355.6,216.2 355.6,200.9 330.2,200.9 330.2,194.7 359,194.7 359,179.4 313.7,179.4 
		313.7,238 359.4,238 359.4,222.7 330.2,222.7 	"/>
	<polygon class="st1" points="400.1,207.9 378.4,179.4 364,179.4 364,238 380.4,238 380.4,208.4 402.9,238 416.5,238 416.5,179.4 
		400.1,179.4 	"/>
	<path class="st1" d="M464,217.6c-4.1,3.7-7.3,5.7-12.6,5.7c-7.6,0-13.2-6.3-13.2-14.6v-0.2c0-8.2,5.7-14.4,13.2-14.4
		c4.3,0,8,1.6,12.2,5.5l1.8,1.6l10.6-12.2l-1.6-1.6c-6.3-6.2-13.4-9-22.9-9c-17.3,0-30.4,13-30.4,30.2v0.2c0,16.8,13.2,30,30,30
		c9.9,0,17-3.1,23.8-10.4l1.6-1.7l-10.7-10.8L464,217.6z"/>
	<rect x="479.5" y="179.4" class="st1" width="16.6" height="58.5"/>
	<path class="st1" d="M522.9,179.1L497.8,238H515l4.9-12.1h19.6l4.9,12.1H562l-25.1-58.9H522.9z M526.1,210.7l3.6-8.9l3.6,8.9H526.1
		z"/>
	<polygon class="st1" points="601.4,216.2 626.8,216.2 626.8,200.9 601.4,200.9 601.4,194.7 630.3,194.7 630.3,179.4 584.9,179.4 
		584.9,238 630.7,238 630.7,222.7 601.4,222.7 	"/>
	<polygon class="st1" points="671.4,207.9 649.7,179.4 635.2,179.4 635.2,238 651.6,238 651.6,208.4 674.2,238 687.8,238 
		687.8,179.4 671.4,179.4 	"/>
	<polygon class="st1" points="741.5,212.9 729,179.4 710.8,179.4 734.5,238.4 748.1,238.4 771.8,179.4 753.9,179.4 	"/>
	<rect x="773.6" y="179.4" class="st1" width="16.6" height="58.5"/>
	<path class="st1" d="M830.9,179.1h-14L791.8,238H809l4.9-12.1h19.6l4.9,12.1H856L830.9,179.1z M820.1,210.7l3.6-8.9l3.6,8.9H820.1z
		"/>
	<polygon class="st1" points="803.8,162.4 788.6,155.7 775.5,176.3 789,176.3 	"/>
	<g>
		<path class="st2" d="M896.1,255c0-6.5-5.3-11.8-11.8-11.8c-6.5,0-11.8,5.3-11.8,11.8s5.3,11.8,11.8,11.8
			C890.8,266.8,896.1,261.5,896.1,255z"/>
		<path class="st3" d="M896.1,222.9c0-6.5-5.3-11.8-11.8-11.8c-6.5,0-11.8,5.3-11.8,11.8c0,6.5,5.3,11.8,11.8,11.8
			C890.8,234.7,896.1,229.4,896.1,222.9z"/>
		<path class="st4" d="M896.1,190.8c0-6.5-5.3-11.8-11.8-11.8c-6.5,0-11.8,5.3-11.8,11.8c0,6.5,5.3,11.8,11.8,11.8
			C890.8,202.6,896.1,197.3,896.1,190.8z"/>
	</g>
	<g>
		<path class="st1" d="M268.7,258.8L268.7,258.8l3.3-9.2h5.6v17H274V254h-0.1l-3.8,10.6h-3.1l-3.7-10.6h-0.1v12.6h-3.4v-17h5.7
			L268.7,258.8z"/>
		<path class="st1" d="M297.3,266.8c-4.2,0-6.9-2.3-6.9-8.6c0-6.2,3-8.9,7.1-8.9c4.2,0,7,2.3,7,8.7
			C304.5,264.2,301.5,266.8,297.3,266.8z M297.5,263.8c1.9,0,3.1-1.4,3.1-5.6c0-4.2-1.3-5.8-3.3-5.8c-1.8,0-3.1,1.3-3.1,5.5
			C294.2,262.3,295.5,263.8,297.5,263.8z"/>
		<path class="st1" d="M315,249.6h4.1l2.6,9.2c0.4,1.6,0.9,3.1,1.2,4.7h0.1c0.3-1.6,0.7-3.1,1.1-4.7l2.6-9.2h3.9l-5.5,17h-4.8
			L315,249.6z"/>
		<path class="st1" d="M342.8,249.6h3.7v17h-3.7V249.6z"/>
		<path class="st1" d="M364.1,249.6v14h6.3v3.1h-10v-17H364.1z"/>
		<path class="st1" d="M382.6,249.6h3.7v17h-3.7V249.6z"/>
		<path class="st1" d="M400.2,249.6h5.3c5.5,0,8,2.7,8,8.1c0,4.3-1.7,8.9-8,8.9h-5.3V249.6z M403.9,263.5h1.4c3.5,0,4.5-2.2,4.5-5.5
			c0-4.1-1.8-5.4-4.5-5.4h-1.3V263.5z"/>
		<path class="st1" d="M434.5,249.6l5.2,17h-3.9l-1.1-3.9H429l-1.1,3.9h-3.7l5.1-17H434.5z M429.8,259.6h4l-0.7-2.4
			c-0.7-2.4-1-3.6-1.3-5.1h-0.1c-0.3,1.5-0.7,2.8-1.3,5L429.8,259.6z"/>
		<path class="st1" d="M451.7,249.6h5.3c5.5,0,8,2.7,8,8.1c0,4.3-1.7,8.9-8,8.9h-5.3V249.6z M455.4,263.5h1.4c3.5,0,4.5-2.2,4.5-5.5
			c0-4.1-1.8-5.4-4.5-5.4h-1.3V263.5z"/>
		<path class="st1" d="M507.5,249.6l-5.7,11.5v5.5h-3.7v-5.5l-5.7-11.5h4.1l3.5,7.8h0.1l3.5-7.8H507.5z"/>
		<path class="st1" d="M548.3,251.3l-2.4,2.6c-0.6-0.7-1.5-1.4-3.1-1.4c-2.2,0-4.1,1.2-4.1,5.3c0,4.2,1.4,6,4.2,6
			c0.5,0,1.3-0.1,1.6-0.2v-5.8h3.7v7.5c-1.2,0.8-2.9,1.5-6.1,1.5c-4.8,0-7.2-2.9-7.2-8.6c0-6.1,3.6-8.9,8.1-8.9
			C546.3,249.3,547.8,250.8,548.3,251.3z"/>
		<path class="st1" d="M561.4,266.6v-17h10.1v3.1h-6.4v3.8h5.5v3.1h-5.5v4.1h6.7v3.1H561.4z"/>
		<path class="st1" d="M592,262.1c0-2.7-7.8-2.3-7.8-7.7c0-2.8,2.5-5,6-5c2.8,0,4.6,1.3,5.2,2l-2.3,2.7c-0.4-0.5-1.4-1.6-3.2-1.6
			c-1.2,0-1.9,0.7-1.9,1.5c0,2.7,7.8,2.3,7.8,7.7c0,2.5-2.1,5-6.4,5c-3.3,0-5.3-1.5-5.9-2.1l2.1-3.1c0.7,0.7,2.2,2,4.3,2
			C591.3,263.7,592,263,592,262.1z"/>
		<path class="st1" d="M610.1,252.6h-4.2v-3.1H618v3.1h-4.2v14h-3.7V252.6z"/>
		<path class="st1" d="M630,249.6h3.7v17H630V249.6z"/>
		<path class="st1" d="M653.9,266.8c-4.2,0-6.9-2.3-6.9-8.6c0-6.2,3-8.9,7.1-8.9c4.2,0,7,2.3,7,8.7
			C661.1,264.2,658,266.8,653.9,266.8z M654.1,263.8c1.9,0,3.1-1.4,3.1-5.6c0-4.2-1.3-5.8-3.3-5.8c-1.8,0-3.1,1.3-3.1,5.5
			C650.8,262.3,652.1,263.8,654.1,263.8z M653.8,248.4l-1.9-1.6l4.5-3.7l3.2,1.9L653.8,248.4z"/>
		<path class="st1" d="M677.5,254.2c0.2,1.7,0.2,3,0.2,5.9v6.4h-3.5v-17h4.4l3.5,6.7c0.8,1.6,1.8,3.5,2.4,5.2h0.1
			c-0.2-2.4-0.2-4.7-0.2-6.5v-5.4h3.5v17h-4.3l-3.7-7.2C679,257.8,678.3,256.1,677.5,254.2L677.5,254.2z"/>
	</g>
</g>
<rect x="-1.2" y="300.7" class="st1" width="61.7" height="6.9"/>
<rect x="-1.2" y="318.3" class="st1" width="61.7" height="6.9"/>
<rect x="-1.2" y="338.3" class="st1" width="61.7" height="6.9"/>
<g>
	<defs>
		<rect id="SVGID_1_" x="-1.2" y="0.2" width="974.9" height="387.7"/>
	</defs>
	<clipPath id="SVGID_2_">
		<use xlink:href="#SVGID_1_"  style="overflow:visible;"/>
	</clipPath>
	<g class="st5">
		<g>
			<path class="st6" d="M196.4-80.9c-0.2,0.9-0.5,1.9-0.7,2.8"/>
			<path class="st7" d="M194-72.5C157.2,52,29.4,126.6-97.3,97"/>
			<path class="st6" d="M-100.2,96.3c-0.9-0.2-1.9-0.5-2.8-0.7"/>
		</g>
	</g>
</g>
</svg>
