<?xml version="1.0" encoding="utf-8"?>
<!-- Generator: Adobe Illustrator 23.1.0, SVG Export Plug-In . SVG Version: 6.00 Build 0)  -->
<svg version="1.1" id="Capa_1" xmlns="http://www.w3.org/2000/svg" xmlns:xlink="http://www.w3.org/1999/xlink" x="0px" y="0px"
	 viewBox="0 0 1920 704" style="enable-background:new 0 0 1920 704;" xml:space="preserve">
<style type="text/css">
	.st0{fill:#FFFFFF;}
	.st1{fill:#BED002;}
	.st2{clip-path:url(#SVGID_2_);}
	.st3{fill:#BED000;}
	.st4{fill:#191D3B;}
</style>
<rect x="0.3" y="-0.4" class="st0" width="1919.7" height="704.4"/>
<g>
	<g>
		<rect x="1840.6" y="69.1" class="st1" width="79.4" height="8.9"/>
		<rect x="1840.6" y="91.7" class="st1" width="79.4" height="8.9"/>
		<rect x="1840.6" y="117.5" class="st1" width="79.4" height="8.9"/>
	</g>
</g>
<g>
	<defs>
		<rect id="SVGID_1_" x="0.3" y="2.2" width="1919.7" height="714"/>
	</defs>
	<clipPath id="SVGID_2_">
		<use xlink:href="#SVGID_1_"  style="overflow:visible;"/>
	</clipPath>
	<g class="st2">
		<g>
			<path class="st3" d="M255.5-98l-3.9-1.1c0.3-1.2,0.6-2.4,1-3.6l3.9,1C256.1-100.4,255.8-99.2,255.5-98z"/>
		</g>
		<g>
			<path class="st3" d="M-52.4,137c-2.5,0-5,0-7.6-0.1l0.1-4.1c2.5,0.1,5,0.1,7.5,0.1L-52.4,137z M-44.8,137l-0.1-4.1
				c2.5-0.1,5-0.1,7.5-0.2l0.2,4.1C-39.8,136.8-42.3,136.9-44.8,137z M-67.5,136.6c-2.5-0.1-5-0.3-7.6-0.5l0.3-4.1
				c2.5,0.2,5,0.3,7.5,0.5L-67.5,136.6z M-29.7,136.3l-0.3-4.1c2.5-0.2,5-0.4,7.4-0.6l0.4,4.1C-24.7,135.9-27.2,136.1-29.7,136.3z
				 M-82.6,135.5c-2.5-0.2-5-0.5-7.5-0.8l0.5-4c2.5,0.3,5,0.6,7.4,0.8L-82.6,135.5z M-14.7,134.9l-0.5-4c2.5-0.3,4.9-0.6,7.4-1
				l0.6,4C-9.7,134.3-12.2,134.6-14.7,134.9z M-97.7,133.6c-2.5-0.4-5-0.8-7.5-1.2l0.7-4c2.5,0.4,4.9,0.8,7.4,1.2L-97.7,133.6z
				 M0.3,132.8l-0.7-4c2.5-0.4,4.9-0.8,7.3-1.3l0.8,4C5.2,131.9,2.8,132.4,0.3,132.8z M-112.6,131.1c-2.5-0.5-4.9-1-7.4-1.5l0.9-4
				c2.4,0.5,4.9,1,7.3,1.5L-112.6,131.1z M15.1,130l-0.9-4c2.4-0.5,4.9-1.1,7.3-1.7l1,4C20,128.9,17.6,129.4,15.1,130z M29.8,126.4
				l-1-3.9c2.4-0.6,4.8-1.3,7.2-2l1.1,3.9C34.7,125.1,32.2,125.8,29.8,126.4z M44.3,122.2l-1.2-3.9c2.4-0.8,4.7-1.5,7.1-2.3l1.3,3.9
				C49.1,120.6,46.7,121.4,44.3,122.2z M58.6,117.3l-1.4-3.8c2.3-0.9,4.7-1.8,7-2.7l1.5,3.8C63.3,115.5,61,116.4,58.6,117.3z
				 M72.7,111.7l-1.6-3.7c2.3-1,4.6-2,6.8-3l1.7,3.7C77.3,109.7,75,110.7,72.7,111.7z M86.5,105.5l-1.8-3.7c2.2-1.1,4.5-2.2,6.7-3.3
				l1.9,3.6C91,103.2,88.7,104.4,86.5,105.5z M99.9,98.6L98,95c2.2-1.2,4.4-2.4,6.5-3.6l2,3.5C104.4,96.1,102.2,97.4,99.9,98.6z
				 M113.1,91l-2.1-3.5c2.1-1.3,4.3-2.6,6.4-3.9l2.2,3.4C117.4,88.4,115.2,89.7,113.1,91z M125.8,82.9l-2.3-3.4
				c2.1-1.4,4.1-2.8,6.2-4.2l2.3,3.3C130,80,127.9,81.5,125.8,82.9z M138.2,74.2l-2.4-3.3c2-1.5,4-3,6-4.5l2.5,3.2
				C142.2,71.1,140.2,72.6,138.2,74.2z M150.2,64.8l-2.6-3.1c1.9-1.6,3.8-3.2,5.7-4.8L156,60C154,61.6,152.1,63.2,150.2,64.8z
				 M161.6,55l-2.7-3c1.9-1.7,3.7-3.4,5.5-5.1l2.8,3C165.4,51.6,163.5,53.3,161.6,55z M172.7,44.5l-2.9-2.9c1.8-1.8,3.5-3.5,5.3-5.3
				l2.9,2.8C176.2,41,174.5,42.8,172.7,44.5z M183.2,33.6l-3-2.8c1.7-1.8,3.3-3.7,5-5.6l3.1,2.7C186.6,29.9,184.9,31.8,183.2,33.6z
				 M193.2,22.2l-3.1-2.6c1.6-1.9,3.2-3.9,4.7-5.8l3.2,2.5C196.4,18.3,194.8,20.2,193.2,22.2z M202.6,10.3l-3.3-2.5c1.5-2,3-4,4.4-6
				l3.3,2.4C205.6,6.2,204.1,8.3,202.6,10.3z M211.4-2l-3.4-2.3c1.4-2.1,2.8-4.1,4.1-6.2l3.4,2.2C214.2-6.2,212.8-4.1,211.4-2z
				 M219.7-14.8l-3.5-2.1c1.3-2.1,2.6-4.3,3.8-6.4l3.5,2C222.3-19.1,221-16.9,219.7-14.8z M227.3-27.9l-3.6-2
				c1.2-2.2,2.4-4.4,3.5-6.6l3.6,1.9C229.7-32.4,228.5-30.1,227.3-27.9z M234.3-41.4l-3.7-1.8c1.1-2.2,2.2-4.5,3.2-6.8l3.7,1.7
				C236.4-45.9,235.4-43.6,234.3-41.4z M240.6-55.1l-3.7-1.6c1-2.3,1.9-4.6,2.9-6.9l3.8,1.5C242.5-59.8,241.6-57.5,240.6-55.1z
				 M246.2-69.2l-3.8-1.4c0.9-2.3,1.7-4.7,2.5-7l3.8,1.3C248-73.9,247.1-71.5,246.2-69.2z M251.2-83.5l-3.9-1.2
				c0.8-2.4,1.5-4.7,2.2-7.1l3.9,1.2C252.7-88.3,252-85.9,251.2-83.5z"/>
		</g>
		<g>
			<path class="st3" d="M-127.5,127.8c-1.2-0.3-2.5-0.6-3.7-0.9l1-3.9c1.2,0.3,2.4,0.6,3.6,0.9L-127.5,127.8z"/>
		</g>
	</g>
</g>
<g>
	<polygon class="st1" points="1644.6,520.8 1528.1,520.8 1528.1,518.7 1643.7,518.7 1721.1,441.4 1920,441.4 1920,443.4 
		1721.9,443.4 	"/>
</g>
<path class="st4" d="M63.3,226c3,0,5.4-2.4,5.4-5.4c0-3-2.4-5.4-5.4-5.4c-3,0-5.4,2.4-5.4,5.4C57.9,223.6,60.3,226,63.3,226z
	 M63.3,385.5c-3,0-5.4,2.4-5.4,5.4s2.4,5.4,5.4,5.4c3,0,5.4-2.4,5.4-5.4C68.8,388,66.3,385.5,63.3,385.5z M63.3,268.6
	c3,0,5.4-2.4,5.4-5.4c0-3-2.4-5.4-5.4-5.4c-3,0-5.4,2.4-5.4,5.4C57.9,266.2,60.3,268.6,63.3,268.6z M63.3,353.8c3,0,5.4-2.4,5.4-5.4
	c0-3-2.4-5.4-5.4-5.4c-3,0-5.4,2.4-5.4,5.4S60.3,353.8,63.3,353.8z M63.3,311.2c3,0,5.4-2.4,5.4-5.4c0-3-2.4-5.4-5.4-5.4
	c-3,0-5.4,2.4-5.4,5.4C57.9,308.8,60.3,311.2,63.3,311.2z"/>
</svg>
