<?xml version="1.0" encoding="utf-8"?>
<!-- Generator: Adobe Illustrator 23.1.0, SVG Export Plug-In . SVG Version: 6.00 Build 0)  -->
<svg version="1.1" id="Capa_1" xmlns="http://www.w3.org/2000/svg" xmlns:xlink="http://www.w3.org/1999/xlink" x="0px" y="0px"
	 viewBox="0 0 1080 1080" style="enable-background:new 0 0 1080 1080;" xml:space="preserve">
<style type="text/css">
	.st0{fill:#B3D235;}
	.st1{fill:#FFFFFF;}
</style>
<path class="st0" d="M1065,539.5c0,290.2-235.3,525.5-525.5,525.5C249.3,1065,14,829.7,14,539.5S249.3,14,539.5,14
	C829.7,14,1065,249.2,1065,539.5"/>
<g>
	<path class="st1" d="M340,789.2c-24.2,0-48.4,0-72.6,0c-12.4,0-16.1-3.8-16.2-16.4c0-16.8-0.1-33.6,0-50.4
		c0.3-33,20.6-53.2,53.5-53.4c23.6-0.1,47.3-0.1,70.9,0.2c33.5,0.4,53.4,20.7,53.5,54.3c0.1,16.5,0,33,0,49.6
		c0,12.2-4.1,16.2-16.5,16.2C388.5,789.2,364.3,789.2,340,789.2 M405.2,764.9c0-16.4,0.6-32.4-0.2-48.2
		c-0.6-13.9-9.9-23.7-24.1-24.2c-26.5-0.8-53-1-79.4,0c-15.2,0.6-25.1,9.5-25.9,22.5c-1,16.4-0.2,32.9-0.2,49.8H405.2z"/>
	<path class="st1" d="M732.3,789.2c-24.2,0-48.4,0-72.7,0c-11.9,0-16.2-4-16.1-15.7c0.1-20.5-0.5-41.1,1.3-61.4
		c2.2-24.3,20.5-41.5,44.8-42.4c28.4-1,57-1.1,85.4-0.1c25.8,0.9,45.2,21.3,46.1,47.2c0.7,19.9,0.4,39.9,0.2,59.8
		c-0.1,8.6-4.9,12.6-14.7,12.6C781.9,789.2,757.1,789.2,732.3,789.2 M797.6,764.9c0-15.8,0.5-31.1-0.1-46.4
		c-0.7-16.4-11.1-26.2-27.6-26.4c-25.1-0.3-50.2-0.2-75.3,0.2c-14.7,0.2-25.3,8.1-26.5,21.7c-1.4,16.8-0.3,33.9-0.3,51H797.6z"/>
	<path class="st1" d="M536.2,789.2c-24.2,0-48.4,0-72.7,0c-12.2,0-16-3.8-16-15.6c-0.1-17.1-0.2-34.2,0-51.3
		c0.3-33.2,20.2-53.1,53.4-53.3c25.6-0.1,51.3-0.4,76.9,0.6c26.3,1,45,19.2,46.6,45.4c1.2,20.4,0.7,40.9,0.5,61.3
		c-0.1,9-4.6,12.8-14.4,12.9C585.8,789.2,561,789.2,536.2,789.2 M601.4,765.1c0-16.8,0.9-32.7-0.3-48.5
		c-1.1-15.5-11.1-24.1-26.7-24.3c-25.1-0.4-50.1-0.5-75.2-0.1c-16.2,0.3-26.1,8.1-27.5,23.5c-1.5,16.2-0.3,32.7-0.3,49.4H601.4z"/>
	<path class="st1" d="M536.1,659.3c-33.8-0.1-62.1-28.5-61.9-62.2c0.2-33.9,28.3-61.7,62.4-61.6c33.7,0.1,61.7,27.8,61.9,61.2
		C598.6,631.1,570.4,659.4,536.1,659.3 M536.4,635.5c21.4,0,38.3-17,38.3-38.5c0-20.6-17.2-37.9-38-38.3
		c-20.7-0.3-38.7,17.5-38.8,38.4C497.7,618.3,515,635.5,536.4,635.5"/>
	<path class="st1" d="M340,535.5c34.2-0.1,61.9,27.5,62,61.7c0.1,34.5-27.6,62.1-62.5,62.1c-33.4,0-61.2-28.1-61.1-61.7
		C278.5,563.1,305.8,535.6,340,535.5 M378.4,597.6c0-21.5-16.7-38.6-38.1-38.9c-20.7-0.3-38.3,17.3-38.5,38.7
		c-0.2,20.9,17.4,38.2,38.7,38.1C361.7,635.4,378.3,618.7,378.4,597.6"/>
	<path class="st1" d="M794.2,597.4c0.1,33.8-27.6,61.9-61.2,61.9c-34.7,0-62.4-27.7-62.4-62.4c0-34.1,27.9-61.4,62.5-61.4
		C766.9,535.6,794.1,563.2,794.2,597.4 M732.4,635.5c21.3,0,38.8-17.2,38.8-38.2c0-20.7-18.1-38.6-38.9-38.5
		c-20.7,0.1-37.8,17.3-38,38.2C694.2,618.6,710.8,635.4,732.4,635.5"/>
	<path class="st1" d="M252.6,740.8c-42.4-14.5-75.7-59.3-75.7-102V456.5c0-56.6,46.1-102.7,102.7-102.7h506.6
		c56.6,0,102.7,46.1,102.7,102.7v182.3c0,44.3-28.3,83.4-70.4,97.5l-7.6-22.7c32.3-10.8,54.1-40.8,54.1-74.7V456.5
		c0-43.4-35.3-78.7-78.7-78.7H279.6c-43.4,0-78.7,35.3-78.7,78.7v182.3c0,32.5,26.7,68.2,59.5,79.4L252.6,740.8z"/>
</g>
</svg>
