<?xml version="1.0" encoding="utf-8"?>
<!-- Generator: Adobe Illustrator 23.1.0, SVG Export Plug-In . SVG Version: 6.00 Build 0)  -->
<svg version="1.1" id="Capa_1" xmlns="http://www.w3.org/2000/svg" xmlns:xlink="http://www.w3.org/1999/xlink" x="0px" y="0px"
	 viewBox="0 0 1080 1080" style="enable-background:new 0 0 1080 1080;" xml:space="preserve">
<style type="text/css">
	.st0{fill:#B3D235;}
	.st1{fill:#FFFFFF;}
</style>
<path class="st0" d="M1063.7,540.1c0,289.9-235,524.9-524.8,524.9C249,1065,14,830,14,540.1S249,15.3,538.9,15.3
	C828.7,15.3,1063.7,250.3,1063.7,540.1"/>
<path class="st1" d="M741.3,665.4h-13.9c-6.3-22.6-112.8-406.1-119.3-429.5c-1.5-5.3-6.3-8.9-11.7-8.9H474.6
	c-5.5,0-10.3,3.6-11.7,8.9c-6.5,23.4-113,406.9-119.3,429.5h-13.9c-27.5,0-49.9,22.4-49.9,49.9v84c0,6.7,5.5,12.2,12.2,12.2h487.2
	c6.7,0,12.2-5.5,12.2-12.2v-84C791.2,687.8,768.8,665.4,741.3,665.4 M483.8,251.4h103.3l27.1,97.4H456.8L483.8,251.4z M450,373.2
	h170.9l47.4,170.5H402.6L450,373.2z M395.9,568h279.2l27.1,97.4H368.8L395.9,568z M304.1,726.3v-11c0-14.1,11.5-25.6,25.6-25.6
	h411.6c14.1,0,25.6,11.5,25.6,25.6v71.9H304.1v-36.5"/>
</svg>
