<?xml version="1.0" encoding="utf-8"?>
<!-- Generator: Adobe Illustrator 23.1.0, SVG Export Plug-In . SVG Version: 6.00 Build 0)  -->
<svg version="1.1" id="Capa_1" xmlns="http://www.w3.org/2000/svg" xmlns:xlink="http://www.w3.org/1999/xlink" x="0px" y="0px"
	 viewBox="0 0 1080 1080" style="enable-background:new 0 0 1080 1080;" xml:space="preserve">
<style type="text/css">
	.st0{fill:#B3D235;}
	.st1{fill-rule:evenodd;clip-rule:evenodd;fill:#FFFFFF;}
	.st2{fill:#FFFFFF;}
</style>
<path class="st0" d="M1070,539.5c0,293-237.5,530.5-530.5,530.5C246.5,1070,9,832.5,9,539.5S246.5,9,539.5,9
	C832.5,9,1070,246.5,1070,539.5"/>
<g>
	<path class="st1" d="M381.5,494.7l38.8-64.7c11.1-18.5,31.1-29.8,52.7-29.8h111.2c21.6,0,41.6,11.3,52.7,29.8l38.8,64.7h41.9
		c15,0,29.5,6,40.1,16.6c10.6,10.6,16.6,25.1,16.6,40.1v66.1c0,5.2-4.2,9.4-9.5,9.4h-66.2c-5.2,0-9.5-4.2-9.5-9.4
		c0-5.2,4.2-9.5,9.5-9.5h56.7v-56.7c0-10-4-19.7-11.1-26.8c-7.1-7.1-16.7-11.1-26.8-11.1h-47.2c-3.3,0-6.4-1.7-8.1-4.6
		c0,0-24.8-41.3-41.6-69.3c-7.7-12.8-21.6-20.7-36.5-20.7H473c-15,0-28.8,7.8-36.5,20.7C419.7,467.7,395,509,395,509
		c-1.7,2.9-4.8,4.6-8.1,4.6h-38c-2.5,0-4.8,1-6.5,2.7c-1.7,1.7-2.7,4.1-2.7,6.5v85.3h37.8c5.2,0,9.5,4.2,9.5,9.5
		c0,5.2-4.2,9.4-9.5,9.4h-47.3c-5.2,0-9.5-4.2-9.5-9.4v-94.7c0-7.5,3-14.6,8.2-19.9c5.3-5.3,12.4-8.2,19.9-8.2H381.5z"/>
	<path class="st1" d="M415.2,570.3c-26.1,0-47.3,21.2-47.3,47.3c0,26.1,21.2,47.3,47.3,47.3c26.1,0,47.3-21.2,47.3-47.3
		C462.5,591.5,441.3,570.3,415.2,570.3 M415.2,589.2c15.7,0,28.4,12.7,28.4,28.4c0,15.7-12.7,28.4-28.4,28.4
		c-15.7,0-28.4-12.7-28.4-28.4C386.9,601.9,399.6,589.2,415.2,589.2"/>
	<path class="st1" d="M661,570.3c-26.1,0-47.3,21.2-47.3,47.3c0,26.1,21.2,47.3,47.3,47.3c26.1,0,47.3-21.2,47.3-47.3
		C708.3,591.5,687.1,570.3,661,570.3 M661,589.2c15.7,0,28.4,12.7,28.4,28.4c0,15.7-12.7,28.4-28.4,28.4
		c-15.7,0-28.4-12.7-28.4-28.4C632.6,601.9,645.3,589.2,661,589.2"/>
	<path class="st1" d="M453,627h170.1c5.2,0,9.5-4.2,9.5-9.5c0-5.2-4.2-9.4-9.5-9.4H453c-5.2,0-9.5,4.2-9.5,9.4
		C443.6,622.8,447.8,627,453,627"/>
	<path class="st1" d="M670.4,494.7H434.1c-5.2,0-9.5,4.2-9.5,9.5c0,5.2,4.2,9.4,9.5,9.4h236.3c5.2,0,9.5-4.2,9.5-9.4
		C679.9,498.9,675.7,494.7,670.4,494.7"/>
	<path class="st1" d="M547.6,504.1v-56.7c0-5.2-4.2-9.4-9.5-9.4c-5.2,0-9.5,4.2-9.5,9.4v56.7c0,5.2,4.2,9.5,9.5,9.5
		C543.3,513.6,547.6,509.4,547.6,504.1"/>
	<path class="st1" d="M755.5,532.5h-18.9c-5.2,0-9.5,4.2-9.5,9.5s4.2,9.5,9.5,9.5h18.9c5.2,0,9.5-4.2,9.5-9.5
		S760.7,532.5,755.5,532.5"/>
	<path class="st1" d="M377.4,560.9h9.5c5.2,0,9.5-4.2,9.5-9.5c0-5.2-4.2-9.5-9.5-9.5h-9.5c-5.2,0-9.5,4.2-9.5,9.5
		C368,556.6,372.2,560.9,377.4,560.9"/>
	<g>
		<path class="st2" d="M535.4,861.1c-175.7,0-318.6-142.9-318.6-318.6s142.9-318.6,318.6-318.6c175.7,0,318.6,142.9,318.6,318.6
			S711.1,861.1,535.4,861.1 M535.4,258.5c-156.6,0-284,127.4-284,284s127.4,284,284,284s284-127.4,284-284S692,258.5,535.4,258.5"/>
		
			<rect x="235.9" y="526.9" transform="matrix(0.6955 -0.7186 0.7186 0.6955 -227.4602 551.707)" class="st2" width="602.6" height="34.6"/>
	</g>
</g>
</svg>
