<?xml version="1.0" encoding="utf-8"?>
<!-- Generator: Adobe Illustrator 23.1.0, SVG Export Plug-In . SVG Version: 6.00 Build 0)  -->
<svg version="1.1" id="Capa_1" xmlns="http://www.w3.org/2000/svg" xmlns:xlink="http://www.w3.org/1999/xlink" x="0px" y="0px"
	 viewBox="0 0 1080 1080" style="enable-background:new 0 0 1080 1080;" xml:space="preserve">
<style type="text/css">
	.st0{fill:#1E213F;}
	.st1{fill:#B3D235;}
</style>
<path class="st0" d="M1063,539.5c0,289.1-234.4,523.5-523.5,523.5C250.4,1063,16,828.6,16,539.5S250.4,16,539.5,16
	C828.6,16,1063,250.4,1063,539.5"/>
<path class="st1" d="M344,533.1h397.6v83.5H344V533.1z M281.2,532.9h41.9v261.2h-41.9V532.9z M762.3,532.9h41.9v261.3h-41.9V532.9z
	 M846.2,379.9V512H709.3L846.2,379.9z M239.4,365.7h136.7L239.4,497.9V365.7z M406.4,365.7h121.4L376.1,512H254.8L406.4,365.7z
	 M557.8,365.7h121.4L527.7,512H406.2L557.8,365.7z M709.3,365.7h121.4L679.2,512H557.8L709.3,365.7z M281.2,313.4h41.9v31.4h-41.9
	V313.4z M762.4,313.4h41.9v31.4h-41.9V313.4z M741.5,292.5v52.3H344v-52.3h-83.6v52.3h-41.9v188.1h41.9v282.1H344V637.4h397.6v177.7
	h83.6V532.9H867V344.8h-41.9v-52.3H741.5z"/>
</svg>
