<?xml version="1.0" encoding="utf-8"?>
<!-- Generator: Adobe Illustrator 23.1.0, SVG Export Plug-In . SVG Version: 6.00 Build 0)  -->
<svg version="1.1" id="Capa_1" xmlns="http://www.w3.org/2000/svg" xmlns:xlink="http://www.w3.org/1999/xlink" x="0px" y="0px"
	 viewBox="0 0 1080 1080" style="enable-background:new 0 0 1080 1080;" xml:space="preserve">
<style type="text/css">
	.st0{fill:#B3D235;}
	.st1{fill:#FFFFFF;}
</style>
<path class="st0" d="M1063,540.5c0,289.7-234.8,524.5-524.5,524.5C248.9,1065,14,830.2,14,540.5S248.9,16,538.5,16
	C828.2,16,1063,250.8,1063,540.5"/>
<g>
	<path class="st1" d="M571.1,794.6c0,52.7,0,101.9,0,151c0,6.1,1.5,12.9-0.7,18c-2.2,5-8.3,8.3-12.7,12.4
		c-3.6-4.1-9.8-7.9-10.3-12.3c-1.4-14.3-0.8-28.8-0.8-43.2c0-36.4,0.4-72.8-0.5-109.2c-0.1-5.6-6.3-11.1-9.7-16.6
		c-3.4,5.5-9.7,10.9-9.8,16.5c-0.8,47.8,0.1,95.5-1.1,143.3c-0.2,7.2-8.2,14.3-12.6,21.5c-3.7-7.1-10.6-14-10.7-21.2
		c-0.9-52.2-0.5-104.4-0.5-160.3c-27.9,0-54.2-0.9-80.4,0.3c-18.5,0.8-25.1-5.4-25.1-24.5c0.6-194.9,0.5-389.7,0.1-584.6
		c0-17.6,3.6-26,23.9-25.7c77.3,1.1,154.7,0.8,232,0.1c17.5-0.2,24.1,5,24.1,23.2c-0.5,196.4-0.4,392.8,0,589.1
		c0,16.9-6,22.9-22.6,22.3C627.5,794,601.1,794.6,571.1,794.6 M422.6,768.3h228V187.9h-228V768.3z"/>
	<path class="st1" d="M612,667.6c-0.3,41.5-33.5,74.8-75,75.2c-43.1,0.4-77-34.5-76.2-78.6c0.7-41.3,34.8-74.4,76.1-74.1
		C579.4,590.6,612.4,624.5,612,667.6 M537.5,716.2c28.1-0.4,51-23.8,50-51c-1-27.4-24.9-49.9-52.3-49.3
		c-27.3,0.6-51.1,25.1-50.1,51.6C486.1,695.5,508.9,716.6,537.5,716.2"/>
	<path class="st1" d="M537.3,553.2c-43.4,0.3-76.4-32.1-76.4-75.2c0-43.1,33.1-76.4,75.9-76.3c41.8,0.1,74.7,32.7,75.3,74.6
		C612.6,519.9,580.5,552.9,537.3,553.2 M587.6,478.7c0.6-27-22.8-50.7-50.4-51c-27.7-0.4-51.5,22.2-52.1,49.4
		c-0.6,26.3,23.8,51.3,50.5,51.8C562.1,529.4,587,505.4,587.6,478.7"/>
	<path class="st1" d="M612,290.2c-0.4,42.8-34.2,75.9-77,75.2c-42.6-0.7-74.9-34.6-74.2-78c0.6-41.8,33.6-73.8,75.8-73.7
		C579.8,213.8,612.4,246.9,612,290.2 M535.8,339.3c27.9,0.3,51.4-22.1,51.9-49.4c0.5-26.3-23.9-51.1-50.6-51.5
		c-26.6-0.4-51.3,23.5-51.8,50.2C484.8,315.7,508,339,535.8,339.3"/>
</g>
</svg>
